<svg width="1400" height="900" viewBox="0 0 1400 900" fill="none" xmlns="http://www.w3.org/2000/svg">
  <rect width="1400" height="900" fill="#07111D"/>
  <rect width="1400" height="900" fill="url(#paint0_radial)"/>
  <path d="M0 574L426 412L912 466L1400 368V900H0V574Z" fill="#121B29"/>
  <path d="M38 626L454 470L914 520L1368 432V900H38V626Z" fill="url(#paint1_linear)"/>
  <path d="M532 230H988V546H532V230Z" fill="#EEF5FA"/>
  <path d="M480 270L762 118L1046 270H480Z" fill="#1C2938"/>
  <path d="M576 284H670V398H576V284Z" fill="#122435"/>
  <path d="M704 284H804V398H704V284Z" fill="#112435"/>
  <path d="M832 284H944V506H832V284Z" fill="#214364"/>
  <path d="M112 608L0 692V900H1400V712L1120 656L738 572L320 514L112 608Z" fill="#5E6773"/>
  <path d="M144 644L0 742V900H1400V746L1090 698L736 612L340 560L144 644Z" fill="url(#paint2_linear)"/>
  <path d="M78 610L364 510L762 578L1140 666L1400 632" stroke="#8FD8F4" stroke-opacity="0.28" stroke-width="12"/>
  <path d="M214 712L944 866" stroke="#F6FFFF" stroke-opacity="0.25" stroke-width="14"/>
  <g filter="url(#filter0_f)">
    <path d="M864 188L1262 72" stroke="#12B6FF" stroke-width="18"/>
  </g>
  <defs>
    <filter id="filter0_f" x="829.48" y="33.3584" width="467.039" height="193.283" filterUnits="userSpaceOnUse" color-interpolation-filters="sRGB">
      <feFlood flood-opacity="0" result="BackgroundImageFix"/>
      <feBlend mode="normal" in="SourceGraphic" in2="BackgroundImageFix" result="shape"/>
      <feGaussianBlur stdDeviation="12" result="effect1_foregroundBlur"/>
    </filter>
    <radialGradient id="paint0_radial" cx="0" cy="0" r="1" gradientUnits="userSpaceOnUse" gradientTransform="translate(1032 116) rotate(141.589) scale(636.85 459.519)">
      <stop stop-color="#12B6FF" stop-opacity="0.36"/>
      <stop offset="1" stop-color="#12B6FF" stop-opacity="0"/>
    </radialGradient>
    <linearGradient id="paint1_linear" x1="54" y1="480" x2="1244" y2="744" gradientUnits="userSpaceOnUse">
      <stop stop-color="#152030"/>
      <stop offset="0.5" stop-color="#416D87"/>
      <stop offset="1" stop-color="#9FE6FF"/>
    </linearGradient>
    <linearGradient id="paint2_linear" x1="82" y1="632" x2="1222" y2="802" gradientUnits="userSpaceOnUse">
      <stop stop-color="#5B6874"/>
      <stop offset="0.52" stop-color="#A5D8EC"/>
      <stop offset="1" stop-color="#F4FFFF"/>
    </linearGradient>
  </defs>
</svg>
